<svg id="visual" viewBox="0 0 900 600" width="900" height="600" xmlns="http://www.w3.org/2000/svg" xmlns:xlink="http://www.w3.org/1999/xlink" version="1.1"><path d="M0 31L21.5 34C43 37 86 43 128.8 46C171.7 49 214.3 49 257.2 50C300 51 343 53 385.8 54C428.7 55 471.3 55 514.2 57C557 59 600 63 642.8 64C685.7 65 728.3 63 771.2 59C814 55 857 49 878.5 46L900 43L900 0L878.5 0C857 0 814 0 771.2 0C728.3 0 685.7 0 642.8 0C600 0 557 0 514.2 0C471.3 0 428.7 0 385.8 0C343 0 300 0 257.2 0C214.3 0 171.7 0 128.8 0C86 0 43 0 21.5 0L0 0Z" fill="#ffffff"></path><path d="M0 61L21.5 65C43 69 86 77 128.8 83C171.7 89 214.3 93 257.2 96C300 99 343 101 385.8 99C428.7 97 471.3 91 514.2 89C557 87 600 89 642.8 89C685.7 89 728.3 87 771.2 83C814 79 857 73 878.5 70L900 67L900 41L878.5 44C857 47 814 53 771.2 57C728.3 61 685.7 63 642.8 62C600 61 557 57 514.2 55C471.3 53 428.7 53 385.8 52C343 51 300 49 257.2 48C214.3 47 171.7 47 128.8 44C86 41 43 35 21.5 32L0 29Z" fill="#e4deef"></path><path d="M0 115L21.5 115C43 115 86 115 128.8 120C171.7 125 214.3 135 257.2 142C300 149 343 153 385.8 150C428.7 147 471.3 137 514.2 131C557 125 600 123 642.8 120C685.7 117 728.3 113 771.2 108C814 103 857 97 878.5 94L900 91L900 65L878.5 68C857 71 814 77 771.2 81C728.3 85 685.7 87 642.8 87C600 87 557 85 514.2 87C471.3 89 428.7 95 385.8 97C343 99 300 97 257.2 94C214.3 91 171.7 87 128.8 81C86 75 43 67 21.5 63L0 59Z" fill="#cabfe0"></path><path d="M0 217L21.5 217C43 217 86 217 128.8 223C171.7 229 214.3 241 257.2 246C300 251 343 249 385.8 248C428.7 247 471.3 247 514.2 256C557 265 600 283 642.8 273C685.7 263 728.3 225 771.2 207C814 189 857 191 878.5 192L900 193L900 89L878.5 92C857 95 814 101 771.2 106C728.3 111 685.7 115 642.8 118C600 121 557 123 514.2 129C471.3 135 428.7 145 385.8 148C343 151 300 147 257.2 140C214.3 133 171.7 123 128.8 118C86 113 43 113 21.5 113L0 113Z" fill="#afa0d0"></path><path d="M0 349L21.5 363C43 377 86 405 128.8 410C171.7 415 214.3 397 257.2 390C300 383 343 387 385.8 393C428.7 399 471.3 407 514.2 412C557 417 600 419 642.8 406C685.7 393 728.3 365 771.2 354C814 343 857 349 878.5 352L900 355L900 191L878.5 190C857 189 814 187 771.2 205C728.3 223 685.7 261 642.8 271C600 281 557 263 514.2 254C471.3 245 428.7 245 385.8 246C343 247 300 249 257.2 244C214.3 239 171.7 227 128.8 221C86 215 43 215 21.5 215L0 215Z" fill="#9482c0"></path><path d="M0 397L21.5 410C43 423 86 449 128.8 458C171.7 467 214.3 459 257.2 454C300 449 343 447 385.8 452C428.7 457 471.3 469 514.2 477C557 485 600 489 642.8 478C685.7 467 728.3 441 771.2 424C814 407 857 399 878.5 395L900 391L900 353L878.5 350C857 347 814 341 771.2 352C728.3 363 685.7 391 642.8 404C600 417 557 415 514.2 410C471.3 405 428.7 397 385.8 391C343 385 300 381 257.2 388C214.3 395 171.7 413 128.8 408C86 403 43 375 21.5 361L0 347Z" fill="#7965b0"></path><path d="M0 505L21.5 509C43 513 86 521 128.8 523C171.7 525 214.3 521 257.2 521C300 521 343 525 385.8 528C428.7 531 471.3 533 514.2 535C557 537 600 539 642.8 534C685.7 529 728.3 517 771.2 512C814 507 857 509 878.5 510L900 511L900 389L878.5 393C857 397 814 405 771.2 422C728.3 439 685.7 465 642.8 476C600 487 557 483 514.2 475C471.3 467 428.7 455 385.8 450C343 445 300 447 257.2 452C214.3 457 171.7 465 128.8 456C86 447 43 421 21.5 408L0 395Z" fill="#5c49a1"></path><path d="M0 559L21.5 559C43 559 86 559 128.8 560C171.7 561 214.3 563 257.2 566C300 569 343 573 385.8 573C428.7 573 471.3 569 514.2 568C557 567 600 569 642.8 568C685.7 567 728.3 563 771.2 561C814 559 857 559 878.5 559L900 559L900 509L878.5 508C857 507 814 505 771.2 510C728.3 515 685.7 527 642.8 532C600 537 557 535 514.2 533C471.3 531 428.7 529 385.8 526C343 523 300 519 257.2 519C214.3 519 171.7 523 128.8 521C86 519 43 511 21.5 507L0 503Z" fill="#3d2e91"></path><path d="M0 601L21.5 601C43 601 86 601 128.8 601C171.7 601 214.3 601 257.2 601C300 601 343 601 385.8 601C428.7 601 471.3 601 514.2 601C557 601 600 601 642.8 601C685.7 601 728.3 601 771.2 601C814 601 857 601 878.5 601L900 601L900 557L878.5 557C857 557 814 557 771.2 559C728.3 561 685.7 565 642.8 566C600 567 557 565 514.2 566C471.3 567 428.7 571 385.8 571C343 571 300 567 257.2 564C214.3 561 171.7 559 128.8 558C86 557 43 557 21.5 557L0 557Z" fill="#0c1381"></path></svg>