<svg id="visual" viewBox="0 0 900 600" width="900" height="600" xmlns="http://www.w3.org/2000/svg" xmlns:xlink="http://www.w3.org/1999/xlink" version="1.1"><path d="M0 109L21.5 111C43 113 86 117 128.8 123C171.7 129 214.3 137 257.2 142C300 147 343 149 385.8 148C428.7 147 471.3 143 514.2 130C557 117 600 95 642.8 90C685.7 85 728.3 97 771.2 103C814 109 857 109 878.5 109L900 109L900 0L878.5 0C857 0 814 0 771.2 0C728.3 0 685.7 0 642.8 0C600 0 557 0 514.2 0C471.3 0 428.7 0 385.8 0C343 0 300 0 257.2 0C214.3 0 171.7 0 128.8 0C86 0 43 0 21.5 0L0 0Z" fill="#dacbcb"></path><path d="M0 271L21.5 278C43 285 86 299 128.8 294C171.7 289 214.3 265 257.2 258C300 251 343 261 385.8 271C428.7 281 471.3 291 514.2 288C557 285 600 269 642.8 271C685.7 273 728.3 293 771.2 289C814 285 857 257 878.5 243L900 229L900 107L878.5 107C857 107 814 107 771.2 101C728.3 95 685.7 83 642.8 88C600 93 557 115 514.2 128C471.3 141 428.7 145 385.8 146C343 147 300 145 257.2 140C214.3 135 171.7 127 128.8 121C86 115 43 111 21.5 109L0 107Z" fill="#e4a3b6"></path><path d="M0 433L21.5 431C43 429 86 425 128.8 428C171.7 431 214.3 441 257.2 448C300 455 343 459 385.8 453C428.7 447 471.3 431 514.2 431C557 431 600 447 642.8 454C685.7 461 728.3 459 771.2 449C814 439 857 421 878.5 412L900 403L900 227L878.5 241C857 255 814 283 771.2 287C728.3 291 685.7 271 642.8 269C600 267 557 283 514.2 286C471.3 289 428.7 279 385.8 269C343 259 300 249 257.2 256C214.3 263 171.7 287 128.8 292C86 297 43 283 21.5 276L0 269Z" fill="#dc7dbb"></path><path d="M0 529L21.5 526C43 523 86 517 128.8 515C171.7 513 214.3 515 257.2 520C300 525 343 533 385.8 535C428.7 537 471.3 533 514.2 534C557 535 600 541 642.8 538C685.7 535 728.3 523 771.2 518C814 513 857 515 878.5 516L900 517L900 401L878.5 410C857 419 814 437 771.2 447C728.3 457 685.7 459 642.8 452C600 445 557 429 514.2 429C471.3 429 428.7 445 385.8 451C343 457 300 453 257.2 446C214.3 439 171.7 429 128.8 426C86 423 43 427 21.5 429L0 431Z" fill="#b761d3"></path><path d="M0 601L21.5 601C43 601 86 601 128.8 601C171.7 601 214.3 601 257.2 601C300 601 343 601 385.8 601C428.7 601 471.3 601 514.2 601C557 601 600 601 642.8 601C685.7 601 728.3 601 771.2 601C814 601 857 601 878.5 601L900 601L900 515L878.5 514C857 513 814 511 771.2 516C728.3 521 685.7 533 642.8 536C600 539 557 533 514.2 532C471.3 531 428.7 535 385.8 533C343 531 300 523 257.2 518C214.3 513 171.7 511 128.8 513C86 515 43 521 21.5 524L0 527Z" fill="#4e59f4"></path></svg>