<svg id="visual" viewBox="0 0 900 600" width="900" height="600" xmlns="http://www.w3.org/2000/svg" xmlns:xlink="http://www.w3.org/1999/xlink" version="1.1"><path d="M0 43L13.7 52C27.3 61 54.7 79 82 81C109.3 83 136.7 69 163.8 70C191 71 218 87 245.2 85C272.3 83 299.7 63 327 52C354.3 41 381.7 39 409 45C436.3 51 463.7 65 491 75C518.3 85 545.7 91 573 85C600.3 79 627.7 61 654.8 61C682 61 709 79 736.2 83C763.3 87 790.7 77 818 73C845.3 69 872.7 71 886.3 72L900 73L900 0L886.3 0C872.7 0 845.3 0 818 0C790.7 0 763.3 0 736.2 0C709 0 682 0 654.8 0C627.7 0 600.3 0 573 0C545.7 0 518.3 0 491 0C463.7 0 436.3 0 409 0C381.7 0 354.3 0 327 0C299.7 0 272.3 0 245.2 0C218 0 191 0 163.8 0C136.7 0 109.3 0 82 0C54.7 0 27.3 0 13.7 0L0 0Z" fill="#cacaca"></path><path d="M0 115L13.7 128C27.3 141 54.7 167 82 180C109.3 193 136.7 193 163.8 192C191 191 218 189 245.2 177C272.3 165 299.7 143 327 131C354.3 119 381.7 117 409 125C436.3 133 463.7 151 491 163C518.3 175 545.7 181 573 180C600.3 179 627.7 171 654.8 180C682 189 709 215 736.2 209C763.3 203 790.7 165 818 156C845.3 147 872.7 167 886.3 177L900 187L900 71L886.3 70C872.7 69 845.3 67 818 71C790.7 75 763.3 85 736.2 81C709 77 682 59 654.8 59C627.7 59 600.3 77 573 83C545.7 89 518.3 83 491 73C463.7 63 436.3 49 409 43C381.7 37 354.3 39 327 50C299.7 61 272.3 81 245.2 83C218 85 191 69 163.8 68C136.7 67 109.3 81 82 79C54.7 77 27.3 59 13.7 50L0 41Z" fill="#b6b4d7"></path><path d="M0 295L13.7 306C27.3 317 54.7 339 82 350C109.3 361 136.7 361 163.8 358C191 355 218 349 245.2 339C272.3 329 299.7 315 327 315C354.3 315 381.7 329 409 350C436.3 371 463.7 399 491 394C518.3 389 545.7 351 573 342C600.3 333 627.7 353 654.8 363C682 373 709 373 736.2 363C763.3 353 790.7 333 818 328C845.3 323 872.7 333 886.3 338L900 343L900 185L886.3 175C872.7 165 845.3 145 818 154C790.7 163 763.3 201 736.2 207C709 213 682 187 654.8 178C627.7 169 600.3 177 573 178C545.7 179 518.3 173 491 161C463.7 149 436.3 131 409 123C381.7 115 354.3 117 327 129C299.7 141 272.3 163 245.2 175C218 187 191 189 163.8 190C136.7 191 109.3 191 82 178C54.7 165 27.3 139 13.7 126L0 113Z" fill="#9e9fe4"></path><path d="M0 469L13.7 477C27.3 485 54.7 501 82 506C109.3 511 136.7 505 163.8 512C191 519 218 539 245.2 546C272.3 553 299.7 547 327 545C354.3 543 381.7 545 409 544C436.3 543 463.7 539 491 536C518.3 533 545.7 531 573 523C600.3 515 627.7 501 654.8 502C682 503 709 519 736.2 525C763.3 531 790.7 527 818 522C845.3 517 872.7 511 886.3 508L900 505L900 341L886.3 336C872.7 331 845.3 321 818 326C790.7 331 763.3 351 736.2 361C709 371 682 371 654.8 361C627.7 351 600.3 331 573 340C545.7 349 518.3 387 491 392C463.7 397 436.3 369 409 348C381.7 327 354.3 313 327 313C299.7 313 272.3 327 245.2 337C218 347 191 353 163.8 356C136.7 359 109.3 359 82 348C54.7 337 27.3 315 13.7 304L0 293Z" fill="#818bf0"></path><path d="M0 601L13.7 601C27.3 601 54.7 601 82 601C109.3 601 136.7 601 163.8 601C191 601 218 601 245.2 601C272.3 601 299.7 601 327 601C354.3 601 381.7 601 409 601C436.3 601 463.7 601 491 601C518.3 601 545.7 601 573 601C600.3 601 627.7 601 654.8 601C682 601 709 601 736.2 601C763.3 601 790.7 601 818 601C845.3 601 872.7 601 886.3 601L900 601L900 503L886.3 506C872.7 509 845.3 515 818 520C790.7 525 763.3 529 736.2 523C709 517 682 501 654.8 500C627.7 499 600.3 513 573 521C545.7 529 518.3 531 491 534C463.7 537 436.3 541 409 542C381.7 543 354.3 541 327 543C299.7 545 272.3 551 245.2 544C218 537 191 517 163.8 510C136.7 503 109.3 509 82 504C54.7 499 27.3 483 13.7 475L0 467Z" fill="#5977fc"></path></svg>